# xmcd
#
# Track frame offsets:
#       182
#       19067
#       33450
#       48425
#       63737
#       81275
#       96535
#       113920
#       130767
#       145860
#       163950
#
# Disc length: 2401 seconds
#
# Revision: 0
# Processed by: cddbd v1.5.1PL2 Copyright (c) Steve Scherf et al.
# Submitted via: WaveLab 4.01
#
DISCID=9e095f0b
DTITLE=Mimi - World Through Your Eyes
DYEAR=1996
DGENRE=Pop
TTITLE0=Two Together
TTITLE1=World Through Your Eyes
TTITLE2=Shock The Ice (Radio Edit)
TTITLE3=Not My Day
TTITLE4=My Lover, My Daddy And My Brother
TTITLE5=Trancedance
TTITLE6=Don´t You Wake Me Up
TTITLE7=Secret Key
TTITLE8=ABC Of Love
TTITLE9=Men Don´t Cry
TTITLE10=Take It As It Comes
EXTD=
EXTT0=
EXTT1=
EXTT2=
EXTT3=
EXTT4=
EXTT5=
EXTT6=
EXTT7=
EXTT8=
EXTT9=
EXTT10=
PLAYORDER=
